HIERARCHY
ROOT Hips
{
  OFFSET -102.467 93.6631 130.069
  CHANNELS 6 Xposition Yposition Zposition Zrotation Xrotation Yrotation
  JOINT LeftUpLeg
  {
    OFFSET 8.64259 1.95398 -2.38835
    CHANNELS 3 Zrotation Xrotation Yrotation
    JOINT LeftLeg
    {
      OFFSET 43.7702 0 0
      CHANNELS 3 Zrotation Xrotation Yrotation
      JOINT LeftFoot
      {
        OFFSET 40.6238 0 0
        CHANNELS 3 Zrotation Xrotation Yrotation
        JOINT LeftToeBase
        {
          OFFSET 12.7242 0 0
          CHANNELS 3 Zrotation Xrotation Yrotation
          End Site
          {
            OFFSET 0 0 0
          }
        }
      }
    }
  }
  JOINT RightUpLeg
  {
    OFFSET -8.2249 1.95398 -2.59336
    CHANNELS 3 Zrotation Xrotation Yrotation
    JOINT RightLeg
    {
      OFFSET 43.5653 0 0
      CHANNELS 3 Zrotation Xrotation Yrotation
      JOINT RightFoot
      {
        OFFSET 40.6238 0 0
        CHANNELS 3 Zrotation Xrotation Yrotation
        JOINT RightToeBase
        {
          OFFSET 12.7242 0 0
          CHANNELS 3 Zrotation Xrotation Yrotation
          End Site
          {
            OFFSET 0 0 0
          }
        }
      }
    }
  }
  JOINT Spine
  {
    OFFSET 0.165834 0.87714 6.61349
    CHANNELS 3 Zrotation Xrotation Yrotation
    JOINT Spine1
    {
      OFFSET 7.38963 1.71661e-005 0
      CHANNELS 3 Zrotation Xrotation Yrotation
      JOINT Spine2
      {
        OFFSET 11.9445 1.14441e-005 0
        CHANNELS 3 Zrotation Xrotation Yrotation
        JOINT Spine3
        {
          OFFSET 14.7254 4.19617e-005 0
          CHANNELS 3 Zrotation Xrotation Yrotation
          JOINT Spine4
          {
            OFFSET 10.9679 0 0
            CHANNELS 3 Zrotation Xrotation Yrotation
            JOINT RightShoulder
            {
              OFFSET 2.46616 -1.6653 3.69651
              CHANNELS 3 Zrotation Xrotation Yrotation
              JOINT RightArm
              {
                OFFSET 13.0012 0 0
                CHANNELS 3 Zrotation Xrotation Yrotation
                JOINT RightForeArm
                {
                  OFFSET 28.7848 1.52588e-005 0
                  CHANNELS 3 Zrotation Xrotation Yrotation
                  JOINT RightHand
                  {
                    OFFSET 26.5688 1.52588e-005 0
                    CHANNELS 3 Zrotation Xrotation Yrotation
                    End Site
                    {
                      OFFSET 0 0 0
                    }
                  }
                }
              }
            }
            JOINT LeftShoulder
            {
              OFFSET 2.38034 -1.29275 -3.7523
              CHANNELS 3 Zrotation Xrotation Yrotation
              JOINT LeftArm
              {
                OFFSET 16.3182 6.10351e-005 0
                CHANNELS 3 Zrotation Xrotation Yrotation
                JOINT LeftForeArm
                {
                  OFFSET 27.0901 0 0
                  CHANNELS 3 Zrotation Xrotation Yrotation
                  JOINT LeftHand
                  {
                    OFFSET 24.5451 1.52588e-005 0
                    CHANNELS 3 Zrotation Xrotation Yrotation
                    End Site
                    {
                      OFFSET 0 0 0
                    }
                  }
                }
              }
            }
            JOINT Neck
            {
              OFFSET 5.0226 -0.0266342 0
              CHANNELS 3 Zrotation Xrotation Yrotation
              JOINT Head
              {
                OFFSET 6.69363 2.86102e-005 0
                CHANNELS 3 Zrotation Xrotation Yrotation
                End Site
                {
                  OFFSET 0 0 0
                }
              }
            }
          }
        }
      }
    }
  }
}
MOTION
Frames:	7
Frame Time:	0.0416667
-272.596 80.802 272.744 91.4332 31.3183 83.7233 -163.046 -11.8394 85.4588 -65.7945 16.5819 -4.20258 24.0803 55.0516 146.828 21.9471 0.88433 19.7113 176.15 -18.5347 105.907 8.30779 12.0651 -70.0242 54.015 27.6693 85.5883 49.2233 -5.27978 -0.67413 2.46065 4.83627 -89.6692 17.2269 5.01504 -0.225828 5.56552 5.00024 -0.446902 -17.044 4.85192 1.2955 2.96861 4.85194 1.29549 130.769 -22.0635 -20.0082 -56.0547 -24.2115 -138.582 -128.078 -45.5712 179.972 -18.0001 -4.12002 21.2243 -49.8558 -40.8671 142.829 6.19977 56.1771 -39.1594 50.5461 -5.15028 -79.7942 18.8859 -12.5362 -64.6917 69.8387 -6.02232 13.9398 -111.764 -9.95535 -6.6112 
-273.298 80.4146 273.516 91.3924 31.4167 83.2772 -163.394 -11.8656 84.8154 -64.9883 15.943 -4.39691 24.8913 54.3008 145.967 22.7578 0.939927 20.5072 177.218 -15.8021 105.912 1.45199 14.7544 -69.5174 68.8914 25.7548 81.3945 49.659 -9.67787 -11.9154 2.46387 4.81382 -89.6155 17.2698 5.04865 -0.12613 5.60863 5.03822 -0.348799 -17.0012 4.85283 1.40069 3.01142 4.85285 1.40069 130.693 -21.8922 -19.9914 -53.8569 -25.9391 -136.593 -128.924 -41.7908 179.973 -18.0117 -4.35808 22.6775 -49.8801 -40.9676 142.738 5.61708 56.352 -38.0559 52.9417 -4.96417 -79.8377 19.1766 -12.6518 -64.4666 69.0958 -6.0286 14.038 -111.346 -9.74857 -6.76498 
-275.317 79.2857 275.725 91.2606 31.7109 81.9766 -164.434 -11.8275 82.9253 -62.6726 14.1531 -4.97479 27.3201 51.3027 143.486 25.605 1.19878 22.9677 -179.98 -9.70967 105 -14.1964 20.9414 -65.1869 104.587 7.18963 71.8968 42.0518 -17.3775 -42.8535 2.47413 4.74753 -89.4581 17.3961 5.14922 0.166271 5.73538 5.15156 -0.0611439 -16.8751 4.86062 1.70982 3.13755 4.86062 1.70982 130.467 -21.3901 -19.9417 -46.2016 -30.5304 -129.743 -131.853 -30.5682 179.977 -17.8156 -5.0079 26.9932 -49.9582 -41.2546 142.468 3.91317 56.8253 -34.8504 61.2191 -4.2488 -79.8964 20.1747 -12.9016 -63.2176 66.9118 -6.06003 14.3184 -110.102 -9.15293 -7.21926 
-278.489 77.4842 279.156 91.007 32.2178 79.8644 -166.17 -11.2836 79.872 -59.0916 11.6484 -5.95902 31.4339 42.7874 139.535 32.3255 2.16461 27.9715 -175.946 -2.89786 102.315 -39.6109 20.8426 -52.3666 134.173 -29.3918 68.9163 27.2636 -15.7791 -76.0827 2.49415 4.63775 -89.1986 17.6045 5.3217 0.646961 5.9444 5.34502 0.411433 -16.6662 4.8807 2.22008 3.34649 4.88069 2.22007 130.095 -20.5619 -19.856 -29.2352 -35.3913 -114.889 -138.329 -11.9611 179.98 -16.7355 -5.80037 34.0874 -50.1083 -41.7034 142.006 1.13658 57.4878 -29.6888 80.7773 -2.19432 -79.9144 21.7459 -12.4896 -58.5154 63.3031 -6.15628 14.7528 -108.011 -8.21299 -7.97672 
-282.679 74.7619 283.597 90.5901 32.9754 76.97 -168.305 -8.45152 76.168 -56.6306 9.44991 -7.63181 38.4778 19.4832 134.008 46.8895 7.2106 40.7437 -171.073 4.49854 98.5386 -68.4376 7.73965 -38.675 142.934 -73.9115 69.6192 27.8995 -29.2079 -100.928 2.52912 4.4845 -88.8353 17.8944 5.57823 1.31616 6.235 5.63071 1.06865 -16.3738 4.92432 2.93521 3.63879 4.92432 2.93522 129.574 -19.3971 -19.7226 0.234079 -32.3431 -90.5258 -150.963 13.3765 179.985 -14.0209 -6.04464 43.1143 -50.357 -42.293 141.327 -2.66265 58.2012 -22.7212 118.228 1.97504 -81.1084 18.6955 -8.71042 -48.4993 58.2299 -6.38023 15.2983 -105 -6.98611 -9.05815 
-287.547 72.1385 288.424 89.9811 34.0266 73.3195 -170.662 -2.32574 73.447 -56.5281 10.692 -10.7342 46.3133 -30.6254 121.007 59.2117 26.7925 75.3452 -165.412 11.2429 92.8164 -87.1586 -8.29468 -30.7063 -30.1843 -73.1067 -100.681 164.028 -38.5735 15.78 2.58735 4.29121 -88.3689 18.2558 5.93592 2.17015 6.59704 6.02563 1.906 -16.0066 5.00917 3.85666 4.00609 5.00916 3.85665 128.916 -17.8882 -19.5017 31.9498 -11.1117 -71.0829 -171.622 43.5 179.994 -10.528 -5.37439 51.5908 -50.7103 -43.047 140.414 -7.36228 58.7919 -14.1636 153.321 4.82715 -83.4658 9.09008 -3.91408 -41.5929 51.6782 -6.78494 15.9177 -101.003 -5.53744 -10.5037 
-293.235 70.092 293.82 89.1843 35.3994 68.9674 -172.878 3.07228 68.5985 -57.4375 16.1935 -9.7132 -11.1732 -70.527 25.8986 28.7518 15.5121 141.292 -158.636 16.8932 85.0645 -97.4354 -20.9478 -26.1238 -35.0686 -52.4472 -98.1681 141.965 24.7116 36.4287 2.68068 4.02562 -87.7788 18.7525 6.42978 3.23153 7.09419 6.56568 2.9446 -15.4984 5.16204 5.01622 4.51427 5.16203 5.01621 127.889 -15.821 -19.4184 59.797 20.1468 -72.5455 163.52 74.8225 -179.967 -10.1391 -5.86428 58.0891 -51.5326 -43.4561 138.97 -13.3077 59.3803 -3.88908 170.988 6.05277 -84.0628 3.65686 -1.9488 -38.7609 42.9277 -7.80819 16.0169 -95.5311 -4.18987 -12.2361 
